<svg width="25" height="24" viewBox="0 0 25 24" fill="none" xmlns="http://www.w3.org/2000/svg">
<g opacity="0.5">
<path d="M5.2002 7H6.2002C6.73063 7 7.23934 6.78929 7.61441 6.41421C7.98948 6.03914 8.2002 5.53043 8.2002 5C8.2002 4.73478 8.30555 4.48043 8.49309 4.29289C8.68063 4.10536 8.93498 4 9.2002 4H15.2002C15.4654 4 15.7198 4.10536 15.9073 4.29289C16.0948 4.48043 16.2002 4.73478 16.2002 5C16.2002 5.53043 16.4109 6.03914 16.786 6.41421C17.1611 6.78929 17.6698 7 18.2002 7H19.2002C19.7306 7 20.2393 7.21071 20.6144 7.58579C20.9895 7.96086 21.2002 8.46957 21.2002 9V18C21.2002 18.5304 20.9895 19.0391 20.6144 19.4142C20.2393 19.7893 19.7306 20 19.2002 20H5.2002C4.66976 20 4.16105 19.7893 3.78598 19.4142C3.41091 19.0391 3.2002 18.5304 3.2002 18V9C3.2002 8.46957 3.41091 7.96086 3.78598 7.58579C4.16105 7.21071 4.66976 7 5.2002 7Z" stroke="white" stroke-width="2" stroke-linecap="round" stroke-linejoin="round"/>
<path d="M12.2002 16C13.857 16 15.2002 14.6569 15.2002 13C15.2002 11.3431 13.857 10 12.2002 10C10.5433 10 9.2002 11.3431 9.2002 13C9.2002 14.6569 10.5433 16 12.2002 16Z" stroke="white" stroke-width="2" stroke-linecap="round" stroke-linejoin="round"/>
</g>
</svg>
